<svg width="357" height="79" viewBox="0 0 357 79" fill="none" xmlns="http://www.w3.org/2000/svg">
<path d="M0 13.9453V0H7.03125V13.9453H0Z" fill="white"/>
<path d="M7.03125 13.9453V0H14.0625V13.9453H7.03125Z" fill="white"/>
<path d="M14.0625 13.9453V0H21.0938V13.9453H14.0625Z" fill="white"/>
<path d="M21.0938 13.9453V0H28.125V13.9453H21.0938Z" fill="white"/>
<path d="M28.125 13.9453V0H35.1562V13.9453H28.125Z" fill="white"/>
<path d="M35.1562 13.9453V0H42.1875V13.9453H35.1562Z" fill="white"/>
<path d="M42.1875 13.9453V0H49.2188V13.9453H42.1875Z" fill="white"/>
<path d="M53.3438 14.1094V6.38086H48.6094V5.16211H54.5625V14.1094H53.3438ZM50.9062 14.1094V8.81836H48.6094V7.59961H52.125V14.1094H50.9062Z" fill="white"/>
<path d="M56.25 13.9453V0H63.2812V13.9453H56.25Z" fill="white"/>
<path d="M63.2812 13.9453V0H70.3125V13.9453H63.2812Z" fill="white"/>
<path d="M70.3125 13.9453V0H77.3438V13.9453H70.3125Z" fill="white"/>
<path d="M77.3438 13.9453V0H84.375V13.9453H77.3438Z" fill="white"/>
<path d="M84.375 13.9453V0H91.4062V13.9453H84.375Z" fill="white"/>
<path d="M91.4062 13.9453V0H98.4375V13.9453H91.4062Z" fill="white"/>
<path d="M98.4375 13.9453V0H105.469V13.9453H98.4375Z" fill="white"/>
<path d="M109.594 14.1094V6.38086H104.859V5.16211H110.812V14.1094H109.594ZM107.156 14.1094V8.81836H104.859V7.59961H108.375V14.1094H107.156Z" fill="white"/>
<path d="M112.5 13.9453V0H119.531V13.9453H112.5Z" fill="white"/>
<path d="M119.531 13.9453V0H126.562V13.9453H119.531Z" fill="white"/>
<path d="M126.562 13.9453V0H133.594V13.9453H126.562Z" fill="white"/>
<path d="M137.719 14.1094V6.38086H132.984V5.16211H138.938V14.1094H137.719ZM135.281 14.1094V8.81836H132.984V7.59961H136.5V14.1094H135.281Z" fill="white"/>
<path d="M161.719 13.9453V0H168.75V13.9453H161.719Z" fill="white"/>
<path d="M168.75 13.9453V0H175.781V13.9453H168.75Z" fill="white"/>
<path d="M179.906 14.1094V6.38086H175.172V5.16211H181.125V14.1094H179.906ZM177.469 14.1094V8.81836H175.172V7.59961H178.688V14.1094H177.469Z" fill="white"/>
<path d="M182.812 13.9453V0H189.844V13.9453H182.812Z" fill="white"/>
<path d="M189.844 13.9453V0H196.875V13.9453H189.844Z" fill="white"/>
<path d="M196.875 13.9453V0H203.906V13.9453H196.875Z" fill="white"/>
<path d="M203.906 13.9453V0H210.938V13.9453H203.906Z" fill="white"/>
<path d="M210.938 13.9453V0H217.969V13.9453H210.938Z" fill="white"/>
<path d="M217.969 13.9453V0H225V13.9453H217.969Z" fill="white"/>
<path d="M225 13.9453V0H232.031V13.9453H225Z" fill="white"/>
<path d="M236.156 14.1094V6.38086H231.422V5.16211H237.375V14.1094H236.156ZM233.719 14.1094V8.81836H231.422V7.59961H234.938V14.1094H233.719Z" fill="white"/>
<path d="M239.062 13.9453V0H246.094V13.9453H239.062Z" fill="white"/>
<path d="M246.094 13.9453V0H253.125V13.9453H246.094Z" fill="white"/>
<path d="M257.25 14.1094V6.38086H252.516V5.16211H258.469V14.1094H257.25ZM254.812 14.1094V8.81836H252.516V7.59961H256.031V14.1094H254.812Z" fill="white"/>
<path d="M302.344 13.9453V0H309.375V13.9453H302.344Z" fill="white"/>
<path d="M309.375 13.9453V0H316.406V13.9453H309.375Z" fill="white"/>
<path d="M316.406 13.9453V0H323.438V13.9453H316.406Z" fill="white"/>
<path d="M323.438 13.9453V0H330.469V13.9453H323.438Z" fill="white"/>
<path d="M330.469 13.9453V0H337.5V13.9453H330.469Z" fill="white"/>
<path d="M337.5 13.9453V0H344.531V13.9453H337.5Z" fill="white"/>
<path d="M348.656 14.1094V6.38086H343.922V5.16211H349.875V14.1094H348.656ZM346.219 14.1094V8.81836H343.922V7.59961H347.438V14.1094H346.219Z" fill="white"/>
<path d="M1.6875 22.8184V13.8711H2.90625V21.5996H7.64062V22.8184H1.6875ZM4.125 20.3809V13.8711H5.34375V19.1621H7.64062V20.3809H4.125Z" fill="white"/>
<path d="M6.42188 20.3809V19.1621H14.6719V20.3809H6.42188ZM6.42188 22.8184V21.5996H14.6719V22.8184H6.42188Z" fill="white"/>
<path d="M13.4531 20.3809V19.1621H21.7031V20.3809H13.4531ZM13.4531 22.8184V21.5996H21.7031V22.8184H13.4531Z" fill="white"/>
<path d="M21.0938 27.9453V14H28.125V27.9453H21.0938Z" fill="white"/>
<path d="M28.125 27.9453V14H35.1562V27.9453H28.125Z" fill="white"/>
<path d="M35.1562 27.9453V14H42.1875V27.9453H35.1562Z" fill="white"/>
<path d="M43.875 28.1094V19.1621H49.8281V20.3809H45.0938V28.1094H43.875ZM46.3125 28.1094V21.5996H49.8281V22.8184H47.5312V28.1094H46.3125Z" fill="white"/>
<path d="M48.6094 22.8184V21.5996H53.3438V13.8711H54.5625V22.8184H48.6094ZM48.6094 20.3809V19.1621H50.9062V13.8711H52.125V20.3809H48.6094Z" fill="white"/>
<path d="M56.25 27.9453V14H63.2812V27.9453H56.25Z" fill="white"/>
<path d="M63.2812 27.9453V14H70.3125V27.9453H63.2812Z" fill="white"/>
<path d="M72 28.1094V19.1621H77.9531V20.3809H73.2188V28.1094H72ZM74.4375 28.1094V21.5996H77.9531V22.8184H75.6562V28.1094H74.4375Z" fill="white"/>
<path d="M76.7344 20.3809V19.1621H84.9844V20.3809H76.7344ZM76.7344 22.8184V21.5996H84.9844V22.8184H76.7344Z" fill="white"/>
<path d="M83.7656 20.3809V19.1621H92.0156V20.3809H83.7656ZM83.7656 22.8184V21.5996H92.0156V22.8184H83.7656Z" fill="white"/>
<path d="M90.7969 20.3809V19.1621H99.0469V20.3809H90.7969ZM90.7969 22.8184V21.5996H99.0469V22.8184H90.7969Z" fill="white"/>
<path d="M97.8281 20.3809V19.1621H106.078V20.3809H97.8281ZM97.8281 22.8184V21.5996H106.078V22.8184H97.8281Z" fill="white"/>
<path d="M104.859 22.8184V21.5996H109.594V13.8711H110.812V22.8184H104.859ZM104.859 20.3809V19.1621H107.156V13.8711H108.375V20.3809H104.859Z" fill="white"/>
<path d="M112.5 27.9453V14H119.531V27.9453H112.5Z" fill="white"/>
<path d="M119.531 27.9453V14H126.562V27.9453H119.531Z" fill="white"/>
<path d="M126.562 27.9453V14H133.594V27.9453H126.562Z" fill="white"/>
<path d="M133.594 27.9453V14H140.625V27.9453H133.594Z" fill="white"/>
<path d="M144.75 28.1094V20.3809H140.016V19.1621H145.969V28.1094H144.75ZM142.312 28.1094V22.8184H140.016V21.5996H143.531V28.1094H142.312Z" fill="white"/>
<path d="M161.719 27.9453V14H168.75V27.9453H161.719Z" fill="white"/>
<path d="M168.75 27.9453V14H175.781V27.9453H168.75Z" fill="white"/>
<path d="M179.906 28.1094V13.8711H181.125V28.1094H179.906ZM177.469 28.1094V13.8711H178.688V28.1094H177.469Z" fill="white"/>
<path d="M182.812 27.9453V14H189.844V27.9453H182.812Z" fill="white"/>
<path d="M189.844 27.9453V14H196.875V27.9453H189.844Z" fill="white"/>
<path d="M198.562 28.1094V19.1621H204.516V20.3809H199.781V28.1094H198.562ZM201 28.1094V21.5996H204.516V22.8184H202.219V28.1094H201Z" fill="white"/>
<path d="M203.297 20.3809V19.1621H211.547V20.3809H203.297ZM203.297 22.8184V21.5996H211.547V22.8184H203.297Z" fill="white"/>
<path d="M210.328 20.3809V19.1621H218.578V20.3809H210.328ZM210.328 22.8184V21.5996H218.578V22.8184H210.328Z" fill="white"/>
<path d="M217.359 20.3809V19.1621H225.609V20.3809H217.359ZM217.359 22.8184V21.5996H225.609V22.8184H217.359Z" fill="white"/>
<path d="M224.391 20.3809V19.1621H232.641V20.3809H224.391ZM224.391 22.8184V21.5996H232.641V22.8184H224.391Z" fill="white"/>
<path d="M231.422 22.8184V21.5996H236.156V13.8711H237.375V22.8184H231.422ZM231.422 20.3809V19.1621H233.719V13.8711H234.938V20.3809H231.422Z" fill="white"/>
<path d="M239.062 27.9453V14H246.094V27.9453H239.062Z" fill="white"/>
<path d="M246.094 27.9453V14H253.125V27.9453H246.094Z" fill="white"/>
<path d="M257.25 28.1094V13.8711H258.469V28.1094H257.25ZM254.812 28.1094V13.8711H256.031V28.1094H254.812Z" fill="white"/>
<path d="M295.312 27.9453V14H302.344V27.9453H295.312Z" fill="white"/>
<path d="M302.344 27.9453V14H309.375V27.9453H302.344Z" fill="white"/>
<path d="M311.062 28.1094V19.1621H317.016V20.3809H312.281V28.1094H311.062ZM313.5 28.1094V21.5996H317.016V22.8184H314.719V28.1094H313.5Z" fill="white"/>
<path d="M315.797 20.3809V19.1621H324.047V20.3809H315.797ZM315.797 22.8184V21.5996H324.047V22.8184H315.797Z" fill="white"/>
<path d="M322.828 20.3809V19.1621H331.078V20.3809H322.828ZM322.828 22.8184V21.5996H331.078V22.8184H322.828Z" fill="white"/>
<path d="M329.859 20.3809V19.1621H338.109V20.3809H329.859ZM329.859 22.8184V21.5996H338.109V22.8184H329.859Z" fill="white"/>
<path d="M337.5 27.9453V14H344.531V27.9453H337.5Z" fill="white"/>
<path d="M344.531 27.9453V14H351.562V27.9453H344.531Z" fill="white"/>
<path d="M355.688 28.1094V20.3809H350.953V19.1621H356.906V28.1094H355.688ZM353.25 28.1094V22.8184H350.953V21.5996H354.469V28.1094H353.25Z" fill="white"/>
<path d="M14.0625 41.9453V28H21.0938V41.9453H14.0625Z" fill="white"/>
<path d="M21.0938 41.9453V28H28.125V41.9453H21.0938Z" fill="white"/>
<path d="M28.125 41.9453V28H35.1562V41.9453H28.125Z" fill="white"/>
<path d="M36.8438 42.1094V33.1621H42.7969V34.3809H38.0625V42.1094H36.8438ZM39.2812 42.1094V35.5996H42.7969V36.8184H40.5V42.1094H39.2812Z" fill="white"/>
<path d="M41.5781 36.8184V35.5996H46.3125V27.8711H47.5312V36.8184H41.5781ZM41.5781 34.3809V33.1621H43.875V27.8711H45.0938V34.3809H41.5781Z" fill="white"/>
<path d="M56.25 41.9453V28H63.2812V41.9453H56.25Z" fill="white"/>
<path d="M63.2812 41.9453V28H70.3125V41.9453H63.2812Z" fill="white"/>
<path d="M70.3125 41.9453V28H77.3438V41.9453H70.3125Z" fill="white"/>
<path d="M77.3438 41.9453V28H84.375V41.9453H77.3438Z" fill="white"/>
<path d="M84.375 41.9453V28H91.4062V41.9453H84.375Z" fill="white"/>
<path d="M95.5312 42.1094V34.3809H90.7969V33.1621H96.75V42.1094H95.5312ZM93.0938 42.1094V36.8184H90.7969V35.5996H94.3125V42.1094H93.0938Z" fill="white"/>
<path d="M112.5 41.9453V28H119.531V41.9453H112.5Z" fill="white"/>
<path d="M119.531 41.9453V28H126.562V41.9453H119.531Z" fill="white"/>
<path d="M128.25 42.1094V33.1621H134.203V34.3809H129.469V42.1094H128.25ZM130.688 42.1094V35.5996H134.203V36.8184H131.906V42.1094H130.688Z" fill="white"/>
<path d="M133.594 41.9453V28H140.625V41.9453H133.594Z" fill="white"/>
<path d="M140.625 41.9453V28H147.656V41.9453H140.625Z" fill="white"/>
<path d="M151.781 42.1094V34.3809H147.047V33.1621H153V42.1094H151.781ZM149.344 42.1094V36.8184H147.047V35.5996H150.562V42.1094H149.344Z" fill="white"/>
<path d="M161.719 41.9453V28H168.75V41.9453H161.719Z" fill="white"/>
<path d="M168.75 41.9453V28H175.781V41.9453H168.75Z" fill="white"/>
<path d="M179.906 42.1094V27.8711H181.125V42.1094H179.906ZM177.469 42.1094V27.8711H178.688V42.1094H177.469Z" fill="white"/>
<path d="M182.812 41.9453V28H189.844V41.9453H182.812Z" fill="white"/>
<path d="M189.844 41.9453V28H196.875V41.9453H189.844Z" fill="white"/>
<path d="M196.875 41.9453V28H203.906V41.9453H196.875Z" fill="white"/>
<path d="M203.906 41.9453V28H210.938V41.9453H203.906Z" fill="white"/>
<path d="M210.938 41.9453V28H217.969V41.9453H210.938Z" fill="white"/>
<path d="M222.094 42.1094V34.3809H217.359V33.1621H223.312V42.1094H222.094ZM219.656 42.1094V36.8184H217.359V35.5996H220.875V42.1094H219.656Z" fill="white"/>
<path d="M239.062 41.9453V28H246.094V41.9453H239.062Z" fill="white"/>
<path d="M246.094 41.9453V28H253.125V41.9453H246.094Z" fill="white"/>
<path d="M257.25 42.1094V27.8711H258.469V42.1094H257.25ZM254.812 42.1094V27.8711H256.031V42.1094H254.812Z" fill="white"/>
<path d="M295.312 41.9453V28H302.344V41.9453H295.312Z" fill="white"/>
<path d="M302.344 41.9453V28H309.375V41.9453H302.344Z" fill="white"/>
<path d="M313.5 42.1094V27.8711H314.719V42.1094H313.5ZM311.062 42.1094V27.8711H312.281V42.1094H311.062Z" fill="white"/>
<path d="M337.5 41.9453V28H344.531V41.9453H337.5Z" fill="white"/>
<path d="M344.531 41.9453V28H351.562V41.9453H344.531Z" fill="white"/>
<path d="M355.688 42.1094V27.8711H356.906V42.1094H355.688ZM353.25 42.1094V27.8711H354.469V42.1094H353.25Z" fill="white"/>
<path d="M7.03125 55.9453V42H14.0625V55.9453H7.03125Z" fill="white"/>
<path d="M14.0625 55.9453V42H21.0938V55.9453H14.0625Z" fill="white"/>
<path d="M21.0938 55.9453V42H28.125V55.9453H21.0938Z" fill="white"/>
<path d="M29.8125 56.1094V47.1621H35.7656V48.3809H31.0312V56.1094H29.8125ZM32.25 56.1094V49.5996H35.7656V50.8184H33.4688V56.1094H32.25Z" fill="white"/>
<path d="M34.5469 50.8184V49.5996H39.2812V41.8711H40.5V50.8184H34.5469ZM34.5469 48.3809V47.1621H36.8438V41.8711H38.0625V48.3809H34.5469Z" fill="white"/>
<path d="M56.25 55.9453V42H63.2812V55.9453H56.25Z" fill="white"/>
<path d="M63.2812 55.9453V42H70.3125V55.9453H63.2812Z" fill="white"/>
<path d="M72 56.1094V47.1621H77.9531V48.3809H73.2188V56.1094H72ZM74.4375 56.1094V49.5996H77.9531V50.8184H75.6562V56.1094H74.4375Z" fill="white"/>
<path d="M76.7344 48.3809V47.1621H84.9844V48.3809H76.7344ZM76.7344 50.8184V49.5996H84.9844V50.8184H76.7344Z" fill="white"/>
<path d="M83.7656 48.3809V47.1621H92.0156V48.3809H83.7656ZM83.7656 50.8184V49.5996H92.0156V50.8184H83.7656Z" fill="white"/>
<path d="M90.7969 50.8184V49.5996H95.5312V41.8711H96.75V50.8184H90.7969ZM90.7969 48.3809V47.1621H93.0938V41.8711H94.3125V48.3809H90.7969Z" fill="white"/>
<path d="M112.5 55.9453V42H119.531V55.9453H112.5Z" fill="white"/>
<path d="M119.531 55.9453V42H126.562V55.9453H119.531Z" fill="white"/>
<path d="M130.688 56.1094V41.8711H131.906V56.1094H130.688ZM128.25 56.1094V41.8711H129.469V56.1094H128.25Z" fill="white"/>
<path d="M135.281 50.8184V41.8711H136.5V49.5996H141.234V50.8184H135.281ZM137.719 48.3809V41.8711H138.938V47.1621H141.234V48.3809H137.719Z" fill="white"/>
<path d="M140.625 55.9453V42H147.656V55.9453H140.625Z" fill="white"/>
<path d="M147.656 55.9453V42H154.688V55.9453H147.656Z" fill="white"/>
<path d="M158.812 56.1094V48.3809H154.078V47.1621H160.031V56.1094H158.812ZM156.375 56.1094V50.8184H154.078V49.5996H157.594V56.1094H156.375Z" fill="white"/>
<path d="M161.719 55.9453V42H168.75V55.9453H161.719Z" fill="white"/>
<path d="M168.75 55.9453V42H175.781V55.9453H168.75Z" fill="white"/>
<path d="M179.906 56.1094V41.8711H181.125V56.1094H179.906ZM177.469 56.1094V41.8711H178.688V56.1094H177.469Z" fill="white"/>
<path d="M182.812 55.9453V42H189.844V55.9453H182.812Z" fill="white"/>
<path d="M189.844 55.9453V42H196.875V55.9453H189.844Z" fill="white"/>
<path d="M198.562 56.1094V47.1621H204.516V48.3809H199.781V56.1094H198.562ZM201 56.1094V49.5996H204.516V50.8184H202.219V56.1094H201Z" fill="white"/>
<path d="M203.297 48.3809V47.1621H211.547V48.3809H203.297ZM203.297 50.8184V49.5996H211.547V50.8184H203.297Z" fill="white"/>
<path d="M210.328 48.3809V47.1621H218.578V48.3809H210.328ZM210.328 50.8184V49.5996H218.578V50.8184H210.328Z" fill="white"/>
<path d="M217.359 50.8184V49.5996H222.094V41.8711H223.312V50.8184H217.359ZM217.359 48.3809V47.1621H219.656V41.8711H220.875V48.3809H217.359Z" fill="white"/>
<path d="M239.062 55.9453V42H246.094V55.9453H239.062Z" fill="white"/>
<path d="M246.094 55.9453V42H253.125V55.9453H246.094Z" fill="white"/>
<path d="M257.25 56.1094V41.8711H258.469V56.1094H257.25ZM254.812 56.1094V41.8711H256.031V56.1094H254.812Z" fill="white"/>
<path d="M295.312 55.9453V42H302.344V55.9453H295.312Z" fill="white"/>
<path d="M302.344 55.9453V42H309.375V55.9453H302.344Z" fill="white"/>
<path d="M313.5 56.1094V41.8711H314.719V56.1094H313.5ZM311.062 56.1094V41.8711H312.281V56.1094H311.062Z" fill="white"/>
<path d="M337.5 55.9453V42H344.531V55.9453H337.5Z" fill="white"/>
<path d="M344.531 55.9453V42H351.562V55.9453H344.531Z" fill="white"/>
<path d="M355.688 56.1094V41.8711H356.906V56.1094H355.688ZM353.25 56.1094V41.8711H354.469V56.1094H353.25Z" fill="white"/>
<path d="M0 69.9453V56H7.03125V69.9453H0Z" fill="white"/>
<path d="M7.03125 69.9453V56H14.0625V69.9453H7.03125Z" fill="white"/>
<path d="M14.0625 69.9453V56H21.0938V69.9453H14.0625Z" fill="white"/>
<path d="M21.0938 69.9453V56H28.125V69.9453H21.0938Z" fill="white"/>
<path d="M28.125 69.9453V56H35.1562V69.9453H28.125Z" fill="white"/>
<path d="M35.1562 69.9453V56H42.1875V69.9453H35.1562Z" fill="white"/>
<path d="M42.1875 69.9453V56H49.2188V69.9453H42.1875Z" fill="white"/>
<path d="M53.3438 70.1094V62.3809H48.6094V61.1621H54.5625V70.1094H53.3438ZM50.9062 70.1094V64.8184H48.6094V63.5996H52.125V70.1094H50.9062Z" fill="white"/>
<path d="M56.25 69.9453V56H63.2812V69.9453H56.25Z" fill="white"/>
<path d="M63.2812 69.9453V56H70.3125V69.9453H63.2812Z" fill="white"/>
<path d="M70.3125 69.9453V56H77.3438V69.9453H70.3125Z" fill="white"/>
<path d="M77.3438 69.9453V56H84.375V69.9453H77.3438Z" fill="white"/>
<path d="M84.375 69.9453V56H91.4062V69.9453H84.375Z" fill="white"/>
<path d="M91.4062 69.9453V56H98.4375V69.9453H91.4062Z" fill="white"/>
<path d="M98.4375 69.9453V56H105.469V69.9453H98.4375Z" fill="white"/>
<path d="M109.594 70.1094V62.3809H104.859V61.1621H110.812V70.1094H109.594ZM107.156 70.1094V64.8184H104.859V63.5996H108.375V70.1094H107.156Z" fill="white"/>
<path d="M112.5 69.9453V56H119.531V69.9453H112.5Z" fill="white"/>
<path d="M119.531 69.9453V56H126.562V69.9453H119.531Z" fill="white"/>
<path d="M130.688 70.1094V55.8711H131.906V70.1094H130.688ZM128.25 70.1094V55.8711H129.469V70.1094H128.25Z" fill="white"/>
<path d="M142.312 64.8184V55.8711H143.531V63.5996H148.266V64.8184H142.312ZM144.75 62.3809V55.8711H145.969V61.1621H148.266V62.3809H144.75Z" fill="white"/>
<path d="M147.656 69.9453V56H154.688V69.9453H147.656Z" fill="white"/>
<path d="M154.688 69.9453V56H161.719V69.9453H154.688Z" fill="white"/>
<path d="M161.719 69.9453V56H168.75V69.9453H161.719Z" fill="white"/>
<path d="M168.75 69.9453V56H175.781V69.9453H168.75Z" fill="white"/>
<path d="M179.906 70.1094V55.8711H181.125V70.1094H179.906ZM177.469 70.1094V55.8711H178.688V70.1094H177.469Z" fill="white"/>
<path d="M182.812 69.9453V56H189.844V69.9453H182.812Z" fill="white"/>
<path d="M189.844 69.9453V56H196.875V69.9453H189.844Z" fill="white"/>
<path d="M201 70.1094V55.8711H202.219V70.1094H201ZM198.562 70.1094V55.8711H199.781V70.1094H198.562Z" fill="white"/>
<path d="M239.062 69.9453V56H246.094V69.9453H239.062Z" fill="white"/>
<path d="M246.094 69.9453V56H253.125V69.9453H246.094Z" fill="white"/>
<path d="M253.125 69.9453V56H260.156V69.9453H253.125Z" fill="white"/>
<path d="M260.156 69.9453V56H267.188V69.9453H260.156Z" fill="white"/>
<path d="M267.188 69.9453V56H274.219V69.9453H267.188Z" fill="white"/>
<path d="M274.219 69.9453V56H281.25V69.9453H274.219Z" fill="white"/>
<path d="M281.25 69.9453V56H288.281V69.9453H281.25Z" fill="white"/>
<path d="M292.406 70.1094V62.3809H287.672V61.1621H293.625V70.1094H292.406ZM289.969 70.1094V64.8184H287.672V63.5996H291.188V70.1094H289.969Z" fill="white"/>
<path d="M297 64.8184V55.8711H298.219V63.5996H302.953V64.8184H297ZM299.438 62.3809V55.8711H300.656V61.1621H302.953V62.3809H299.438Z" fill="white"/>
<path d="M302.344 69.9453V56H309.375V69.9453H302.344Z" fill="white"/>
<path d="M309.375 69.9453V56H316.406V69.9453H309.375Z" fill="white"/>
<path d="M316.406 69.9453V56H323.438V69.9453H316.406Z" fill="white"/>
<path d="M323.438 69.9453V56H330.469V69.9453H323.438Z" fill="white"/>
<path d="M330.469 69.9453V56H337.5V69.9453H330.469Z" fill="white"/>
<path d="M337.5 69.9453V56H344.531V69.9453H337.5Z" fill="white"/>
<path d="M346.219 70.1094V61.1621H352.172V62.3809H347.438V70.1094H346.219ZM348.656 70.1094V63.5996H352.172V64.8184H349.875V70.1094H348.656Z" fill="white"/>
<path d="M350.953 64.8184V63.5996H355.688V55.8711H356.906V64.8184H350.953ZM350.953 62.3809V61.1621H353.25V55.8711H354.469V62.3809H350.953Z" fill="white"/>
<path d="M1.6875 78.8184V69.8711H2.90625V77.5996H7.64062V78.8184H1.6875ZM4.125 76.3809V69.8711H5.34375V75.1621H7.64062V76.3809H4.125Z" fill="white"/>
<path d="M6.42188 76.3809V75.1621H14.6719V76.3809H6.42188ZM6.42188 78.8184V77.5996H14.6719V78.8184H6.42188Z" fill="white"/>
<path d="M13.4531 76.3809V75.1621H21.7031V76.3809H13.4531ZM13.4531 78.8184V77.5996H21.7031V78.8184H13.4531Z" fill="white"/>
<path d="M20.4844 76.3809V75.1621H28.7344V76.3809H20.4844ZM20.4844 78.8184V77.5996H28.7344V78.8184H20.4844Z" fill="white"/>
<path d="M27.5156 76.3809V75.1621H35.7656V76.3809H27.5156ZM27.5156 78.8184V77.5996H35.7656V78.8184H27.5156Z" fill="white"/>
<path d="M34.5469 76.3809V75.1621H42.7969V76.3809H34.5469ZM34.5469 78.8184V77.5996H42.7969V78.8184H34.5469Z" fill="white"/>
<path d="M41.5781 76.3809V75.1621H49.8281V76.3809H41.5781ZM41.5781 78.8184V77.5996H49.8281V78.8184H41.5781Z" fill="white"/>
<path d="M48.6094 78.8184V77.5996H53.3438V69.8711H54.5625V78.8184H48.6094ZM48.6094 76.3809V75.1621H50.9062V69.8711H52.125V76.3809H48.6094Z" fill="white"/>
<path d="M57.9375 78.8184V69.8711H59.1562V77.5996H63.8906V78.8184H57.9375ZM60.375 76.3809V69.8711H61.5938V75.1621H63.8906V76.3809H60.375Z" fill="white"/>
<path d="M62.6719 76.3809V75.1621H70.9219V76.3809H62.6719ZM62.6719 78.8184V77.5996H70.9219V78.8184H62.6719Z" fill="white"/>
<path d="M69.7031 76.3809V75.1621H77.9531V76.3809H69.7031ZM69.7031 78.8184V77.5996H77.9531V78.8184H69.7031Z" fill="white"/>
<path d="M76.7344 76.3809V75.1621H84.9844V76.3809H76.7344ZM76.7344 78.8184V77.5996H84.9844V78.8184H76.7344Z" fill="white"/>
<path d="M83.7656 76.3809V75.1621H92.0156V76.3809H83.7656ZM83.7656 78.8184V77.5996H92.0156V78.8184H83.7656Z" fill="white"/>
<path d="M90.7969 76.3809V75.1621H99.0469V76.3809H90.7969ZM90.7969 78.8184V77.5996H99.0469V78.8184H90.7969Z" fill="white"/>
<path d="M97.8281 76.3809V75.1621H106.078V76.3809H97.8281ZM97.8281 78.8184V77.5996H106.078V78.8184H97.8281Z" fill="white"/>
<path d="M104.859 78.8184V77.5996H109.594V69.8711H110.812V78.8184H104.859ZM104.859 76.3809V75.1621H107.156V69.8711H108.375V76.3809H104.859Z" fill="white"/>
<path d="M114.188 78.8184V69.8711H115.406V77.5996H120.141V78.8184H114.188ZM116.625 76.3809V69.8711H117.844V75.1621H120.141V76.3809H116.625Z" fill="white"/>
<path d="M118.922 76.3809V75.1621H127.172V76.3809H118.922ZM118.922 78.8184V77.5996H127.172V78.8184H118.922Z" fill="white"/>
<path d="M125.953 78.8184V77.5996H130.688V69.8711H131.906V78.8184H125.953ZM125.953 76.3809V75.1621H128.25V69.8711H129.469V76.3809H125.953Z" fill="white"/>
<path d="M149.344 78.8184V69.8711H150.562V77.5996H155.297V78.8184H149.344ZM151.781 76.3809V69.8711H153V75.1621H155.297V76.3809H151.781Z" fill="white"/>
<path d="M154.078 76.3809V75.1621H162.328V76.3809H154.078ZM154.078 78.8184V77.5996H162.328V78.8184H154.078Z" fill="white"/>
<path d="M161.109 76.3809V75.1621H169.359V76.3809H161.109ZM161.109 78.8184V77.5996H169.359V78.8184H161.109Z" fill="white"/>
<path d="M168.141 76.3809V75.1621H176.391V76.3809H168.141ZM168.141 78.8184V77.5996H176.391V78.8184H168.141Z" fill="white"/>
<path d="M175.172 78.8184V77.5996H179.906V69.8711H181.125V78.8184H175.172ZM175.172 76.3809V75.1621H177.469V69.8711H178.688V76.3809H175.172Z" fill="white"/>
<path d="M184.5 78.8184V69.8711H185.719V77.5996H190.453V78.8184H184.5ZM186.938 76.3809V69.8711H188.156V75.1621H190.453V76.3809H186.938Z" fill="white"/>
<path d="M189.234 76.3809V75.1621H197.484V76.3809H189.234ZM189.234 78.8184V77.5996H197.484V78.8184H189.234Z" fill="white"/>
<path d="M196.266 78.8184V77.5996H201V69.8711H202.219V78.8184H196.266ZM196.266 76.3809V75.1621H198.562V69.8711H199.781V76.3809H196.266Z" fill="white"/>
<path d="M240.75 78.8184V69.8711H241.969V77.5996H246.703V78.8184H240.75ZM243.188 76.3809V69.8711H244.406V75.1621H246.703V76.3809H243.188Z" fill="white"/>
<path d="M245.484 76.3809V75.1621H253.734V76.3809H245.484ZM245.484 78.8184V77.5996H253.734V78.8184H245.484Z" fill="white"/>
<path d="M252.516 76.3809V75.1621H260.766V76.3809H252.516ZM252.516 78.8184V77.5996H260.766V78.8184H252.516Z" fill="white"/>
<path d="M259.547 76.3809V75.1621H267.797V76.3809H259.547ZM259.547 78.8184V77.5996H267.797V78.8184H259.547Z" fill="white"/>
<path d="M266.578 76.3809V75.1621H274.828V76.3809H266.578ZM266.578 78.8184V77.5996H274.828V78.8184H266.578Z" fill="white"/>
<path d="M273.609 76.3809V75.1621H281.859V76.3809H273.609ZM273.609 78.8184V77.5996H281.859V78.8184H273.609Z" fill="white"/>
<path d="M280.641 76.3809V75.1621H288.891V76.3809H280.641ZM280.641 78.8184V77.5996H288.891V78.8184H280.641Z" fill="white"/>
<path d="M287.672 78.8184V77.5996H292.406V69.8711H293.625V78.8184H287.672ZM287.672 76.3809V75.1621H289.969V69.8711H291.188V76.3809H287.672Z" fill="white"/>
<path d="M304.031 78.8184V69.8711H305.25V77.5996H309.984V78.8184H304.031ZM306.469 76.3809V69.8711H307.688V75.1621H309.984V76.3809H306.469Z" fill="white"/>
<path d="M308.766 76.3809V75.1621H317.016V76.3809H308.766ZM308.766 78.8184V77.5996H317.016V78.8184H308.766Z" fill="white"/>
<path d="M315.797 76.3809V75.1621H324.047V76.3809H315.797ZM315.797 78.8184V77.5996H324.047V78.8184H315.797Z" fill="white"/>
<path d="M322.828 76.3809V75.1621H331.078V76.3809H322.828ZM322.828 78.8184V77.5996H331.078V78.8184H322.828Z" fill="white"/>
<path d="M329.859 76.3809V75.1621H338.109V76.3809H329.859ZM329.859 78.8184V77.5996H338.109V78.8184H329.859Z" fill="white"/>
<path d="M336.891 76.3809V75.1621H345.141V76.3809H336.891ZM336.891 78.8184V77.5996H345.141V78.8184H336.891Z" fill="white"/>
<path d="M343.922 78.8184V77.5996H348.656V69.8711H349.875V78.8184H343.922ZM343.922 76.3809V75.1621H346.219V69.8711H347.438V76.3809H343.922Z" fill="white"/>
</svg>
