<svg width="182" height="163" viewBox="0 0 182 163" fill="none" xmlns="http://www.w3.org/2000/svg">
<path d="M0 13.9453V0H7.03125V13.9453H0Z" fill="black"/>
<path d="M7.03125 13.9453V0H14.0625V13.9453H7.03125Z" fill="black"/>
<path d="M14.0625 13.9453V0H21.0938V13.9453H14.0625Z" fill="black"/>
<path d="M21.0938 13.9453V0H28.125V13.9453H21.0938Z" fill="black"/>
<path d="M28.125 13.9453V0H35.1562V13.9453H28.125Z" fill="black"/>
<path d="M35.1562 13.9453V0H42.1875V13.9453H35.1562Z" fill="black"/>
<path d="M42.1875 13.9453V0H49.2188V13.9453H42.1875Z" fill="black"/>
<path d="M53.3438 14.1094V6.38086H48.6094V5.16211H54.5625V14.1094H53.3438ZM50.9062 14.1094V8.81836H48.6094V7.59961H52.125V14.1094H50.9062Z" fill="black"/>
<path d="M56.25 13.9453V0H63.2812V13.9453H56.25Z" fill="black"/>
<path d="M63.2812 13.9453V0H70.3125V13.9453H63.2812Z" fill="black"/>
<path d="M70.3125 13.9453V0H77.3438V13.9453H70.3125Z" fill="black"/>
<path d="M77.3438 13.9453V0H84.375V13.9453H77.3438Z" fill="black"/>
<path d="M84.375 13.9453V0H91.4062V13.9453H84.375Z" fill="black"/>
<path d="M91.4062 13.9453V0H98.4375V13.9453H91.4062Z" fill="black"/>
<path d="M98.4375 13.9453V0H105.469V13.9453H98.4375Z" fill="black"/>
<path d="M109.594 14.1094V6.38086H104.859V5.16211H110.812V14.1094H109.594ZM107.156 14.1094V8.81836H104.859V7.59961H108.375V14.1094H107.156Z" fill="black"/>
<path d="M112.5 13.9453V0H119.531V13.9453H112.5Z" fill="black"/>
<path d="M119.531 13.9453V0H126.562V13.9453H119.531Z" fill="black"/>
<path d="M126.562 13.9453V0H133.594V13.9453H126.562Z" fill="black"/>
<path d="M137.719 14.1094V6.38086H132.984V5.16211H138.938V14.1094H137.719ZM135.281 14.1094V8.81836H132.984V7.59961H136.5V14.1094H135.281Z" fill="black"/>
<path d="M161.719 13.9453V0H168.75V13.9453H161.719Z" fill="black"/>
<path d="M168.75 13.9453V0H175.781V13.9453H168.75Z" fill="black"/>
<path d="M179.906 14.1094V6.38086H175.172V5.16211H181.125V14.1094H179.906ZM177.469 14.1094V8.81836H175.172V7.59961H178.688V14.1094H177.469Z" fill="black"/>
<path d="M1.6875 22.8184V13.8711H2.90625V21.5996H7.64062V22.8184H1.6875ZM4.125 20.3809V13.8711H5.34375V19.1621H7.64062V20.3809H4.125Z" fill="black"/>
<path d="M6.42188 20.3809V19.1621H14.6719V20.3809H6.42188ZM6.42188 22.8184V21.5996H14.6719V22.8184H6.42188Z" fill="black"/>
<path d="M13.4531 20.3809V19.1621H21.7031V20.3809H13.4531ZM13.4531 22.8184V21.5996H21.7031V22.8184H13.4531Z" fill="black"/>
<path d="M21.0938 27.9453V14H28.125V27.9453H21.0938Z" fill="black"/>
<path d="M28.125 27.9453V14H35.1562V27.9453H28.125Z" fill="black"/>
<path d="M35.1562 27.9453V14H42.1875V27.9453H35.1562Z" fill="black"/>
<path d="M43.875 28.1094V19.1621H49.8281V20.3809H45.0938V28.1094H43.875ZM46.3125 28.1094V21.5996H49.8281V22.8184H47.5312V28.1094H46.3125Z" fill="black"/>
<path d="M48.6094 22.8184V21.5996H53.3438V13.8711H54.5625V22.8184H48.6094ZM48.6094 20.3809V19.1621H50.9062V13.8711H52.125V20.3809H48.6094Z" fill="black"/>
<path d="M56.25 27.9453V14H63.2812V27.9453H56.25Z" fill="black"/>
<path d="M63.2812 27.9453V14H70.3125V27.9453H63.2812Z" fill="black"/>
<path d="M72 28.1094V19.1621H77.9531V20.3809H73.2188V28.1094H72ZM74.4375 28.1094V21.5996H77.9531V22.8184H75.6562V28.1094H74.4375Z" fill="black"/>
<path d="M76.7344 20.3809V19.1621H84.9844V20.3809H76.7344ZM76.7344 22.8184V21.5996H84.9844V22.8184H76.7344Z" fill="black"/>
<path d="M83.7656 20.3809V19.1621H92.0156V20.3809H83.7656ZM83.7656 22.8184V21.5996H92.0156V22.8184H83.7656Z" fill="black"/>
<path d="M90.7969 20.3809V19.1621H99.0469V20.3809H90.7969ZM90.7969 22.8184V21.5996H99.0469V22.8184H90.7969Z" fill="black"/>
<path d="M97.8281 20.3809V19.1621H106.078V20.3809H97.8281ZM97.8281 22.8184V21.5996H106.078V22.8184H97.8281Z" fill="black"/>
<path d="M104.859 22.8184V21.5996H109.594V13.8711H110.812V22.8184H104.859ZM104.859 20.3809V19.1621H107.156V13.8711H108.375V20.3809H104.859Z" fill="black"/>
<path d="M112.5 27.9453V14H119.531V27.9453H112.5Z" fill="black"/>
<path d="M119.531 27.9453V14H126.562V27.9453H119.531Z" fill="black"/>
<path d="M126.562 27.9453V14H133.594V27.9453H126.562Z" fill="black"/>
<path d="M133.594 27.9453V14H140.625V27.9453H133.594Z" fill="black"/>
<path d="M144.75 28.1094V20.3809H140.016V19.1621H145.969V28.1094H144.75ZM142.312 28.1094V22.8184H140.016V21.5996H143.531V28.1094H142.312Z" fill="black"/>
<path d="M161.719 27.9453V14H168.75V27.9453H161.719Z" fill="black"/>
<path d="M168.75 27.9453V14H175.781V27.9453H168.75Z" fill="black"/>
<path d="M179.906 28.1094V13.8711H181.125V28.1094H179.906ZM177.469 28.1094V13.8711H178.688V28.1094H177.469Z" fill="black"/>
<path d="M14.0625 41.9453V28H21.0938V41.9453H14.0625Z" fill="black"/>
<path d="M21.0938 41.9453V28H28.125V41.9453H21.0938Z" fill="black"/>
<path d="M28.125 41.9453V28H35.1562V41.9453H28.125Z" fill="black"/>
<path d="M36.8438 42.1094V33.1621H42.7969V34.3809H38.0625V42.1094H36.8438ZM39.2812 42.1094V35.5996H42.7969V36.8184H40.5V42.1094H39.2812Z" fill="black"/>
<path d="M41.5781 36.8184V35.5996H46.3125V27.8711H47.5312V36.8184H41.5781ZM41.5781 34.3809V33.1621H43.875V27.8711H45.0938V34.3809H41.5781Z" fill="black"/>
<path d="M56.25 41.9453V28H63.2812V41.9453H56.25Z" fill="black"/>
<path d="M63.2812 41.9453V28H70.3125V41.9453H63.2812Z" fill="black"/>
<path d="M70.3125 41.9453V28H77.3438V41.9453H70.3125Z" fill="black"/>
<path d="M77.3438 41.9453V28H84.375V41.9453H77.3438Z" fill="black"/>
<path d="M84.375 41.9453V28H91.4062V41.9453H84.375Z" fill="black"/>
<path d="M95.5312 42.1094V34.3809H90.7969V33.1621H96.75V42.1094H95.5312ZM93.0938 42.1094V36.8184H90.7969V35.5996H94.3125V42.1094H93.0938Z" fill="black"/>
<path d="M112.5 41.9453V28H119.531V41.9453H112.5Z" fill="black"/>
<path d="M119.531 41.9453V28H126.562V41.9453H119.531Z" fill="black"/>
<path d="M128.25 42.1094V33.1621H134.203V34.3809H129.469V42.1094H128.25ZM130.688 42.1094V35.5996H134.203V36.8184H131.906V42.1094H130.688Z" fill="black"/>
<path d="M133.594 41.9453V28H140.625V41.9453H133.594Z" fill="black"/>
<path d="M140.625 41.9453V28H147.656V41.9453H140.625Z" fill="black"/>
<path d="M151.781 42.1094V34.3809H147.047V33.1621H153V42.1094H151.781ZM149.344 42.1094V36.8184H147.047V35.5996H150.562V42.1094H149.344Z" fill="black"/>
<path d="M161.719 41.9453V28H168.75V41.9453H161.719Z" fill="black"/>
<path d="M168.75 41.9453V28H175.781V41.9453H168.75Z" fill="black"/>
<path d="M179.906 42.1094V27.8711H181.125V42.1094H179.906ZM177.469 42.1094V27.8711H178.688V42.1094H177.469Z" fill="black"/>
<path d="M7.03125 55.9453V42H14.0625V55.9453H7.03125Z" fill="black"/>
<path d="M14.0625 55.9453V42H21.0938V55.9453H14.0625Z" fill="black"/>
<path d="M21.0938 55.9453V42H28.125V55.9453H21.0938Z" fill="black"/>
<path d="M29.8125 56.1094V47.1621H35.7656V48.3809H31.0312V56.1094H29.8125ZM32.25 56.1094V49.5996H35.7656V50.8184H33.4688V56.1094H32.25Z" fill="black"/>
<path d="M34.5469 50.8184V49.5996H39.2812V41.8711H40.5V50.8184H34.5469ZM34.5469 48.3809V47.1621H36.8438V41.8711H38.0625V48.3809H34.5469Z" fill="black"/>
<path d="M56.25 55.9453V42H63.2812V55.9453H56.25Z" fill="black"/>
<path d="M63.2812 55.9453V42H70.3125V55.9453H63.2812Z" fill="black"/>
<path d="M72 56.1094V47.1621H77.9531V48.3809H73.2188V56.1094H72ZM74.4375 56.1094V49.5996H77.9531V50.8184H75.6562V56.1094H74.4375Z" fill="black"/>
<path d="M76.7344 48.3809V47.1621H84.9844V48.3809H76.7344ZM76.7344 50.8184V49.5996H84.9844V50.8184H76.7344Z" fill="black"/>
<path d="M83.7656 48.3809V47.1621H92.0156V48.3809H83.7656ZM83.7656 50.8184V49.5996H92.0156V50.8184H83.7656Z" fill="black"/>
<path d="M90.7969 50.8184V49.5996H95.5312V41.8711H96.75V50.8184H90.7969ZM90.7969 48.3809V47.1621H93.0938V41.8711H94.3125V48.3809H90.7969Z" fill="black"/>
<path d="M112.5 55.9453V42H119.531V55.9453H112.5Z" fill="black"/>
<path d="M119.531 55.9453V42H126.562V55.9453H119.531Z" fill="black"/>
<path d="M130.688 56.1094V41.8711H131.906V56.1094H130.688ZM128.25 56.1094V41.8711H129.469V56.1094H128.25Z" fill="black"/>
<path d="M135.281 50.8184V41.8711H136.5V49.5996H141.234V50.8184H135.281ZM137.719 48.3809V41.8711H138.938V47.1621H141.234V48.3809H137.719Z" fill="black"/>
<path d="M140.625 55.9453V42H147.656V55.9453H140.625Z" fill="black"/>
<path d="M147.656 55.9453V42H154.688V55.9453H147.656Z" fill="black"/>
<path d="M158.812 56.1094V48.3809H154.078V47.1621H160.031V56.1094H158.812ZM156.375 56.1094V50.8184H154.078V49.5996H157.594V56.1094H156.375Z" fill="black"/>
<path d="M161.719 55.9453V42H168.75V55.9453H161.719Z" fill="black"/>
<path d="M168.75 55.9453V42H175.781V55.9453H168.75Z" fill="black"/>
<path d="M179.906 56.1094V41.8711H181.125V56.1094H179.906ZM177.469 56.1094V41.8711H178.688V56.1094H177.469Z" fill="black"/>
<path d="M0 69.9453V56H7.03125V69.9453H0Z" fill="black"/>
<path d="M7.03125 69.9453V56H14.0625V69.9453H7.03125Z" fill="black"/>
<path d="M14.0625 69.9453V56H21.0938V69.9453H14.0625Z" fill="black"/>
<path d="M21.0938 69.9453V56H28.125V69.9453H21.0938Z" fill="black"/>
<path d="M28.125 69.9453V56H35.1562V69.9453H28.125Z" fill="black"/>
<path d="M35.1562 69.9453V56H42.1875V69.9453H35.1562Z" fill="black"/>
<path d="M42.1875 69.9453V56H49.2188V69.9453H42.1875Z" fill="black"/>
<path d="M53.3438 70.1094V62.3809H48.6094V61.1621H54.5625V70.1094H53.3438ZM50.9062 70.1094V64.8184H48.6094V63.5996H52.125V70.1094H50.9062Z" fill="black"/>
<path d="M56.25 69.9453V56H63.2812V69.9453H56.25Z" fill="black"/>
<path d="M63.2812 69.9453V56H70.3125V69.9453H63.2812Z" fill="black"/>
<path d="M70.3125 69.9453V56H77.3438V69.9453H70.3125Z" fill="black"/>
<path d="M77.3438 69.9453V56H84.375V69.9453H77.3438Z" fill="black"/>
<path d="M84.375 69.9453V56H91.4062V69.9453H84.375Z" fill="black"/>
<path d="M91.4062 69.9453V56H98.4375V69.9453H91.4062Z" fill="black"/>
<path d="M98.4375 69.9453V56H105.469V69.9453H98.4375Z" fill="black"/>
<path d="M109.594 70.1094V62.3809H104.859V61.1621H110.812V70.1094H109.594ZM107.156 70.1094V64.8184H104.859V63.5996H108.375V70.1094H107.156Z" fill="black"/>
<path d="M112.5 69.9453V56H119.531V69.9453H112.5Z" fill="black"/>
<path d="M119.531 69.9453V56H126.562V69.9453H119.531Z" fill="black"/>
<path d="M130.688 70.1094V55.8711H131.906V70.1094H130.688ZM128.25 70.1094V55.8711H129.469V70.1094H128.25Z" fill="black"/>
<path d="M142.312 64.8184V55.8711H143.531V63.5996H148.266V64.8184H142.312ZM144.75 62.3809V55.8711H145.969V61.1621H148.266V62.3809H144.75Z" fill="black"/>
<path d="M147.656 69.9453V56H154.688V69.9453H147.656Z" fill="black"/>
<path d="M154.688 69.9453V56H161.719V69.9453H154.688Z" fill="black"/>
<path d="M161.719 69.9453V56H168.75V69.9453H161.719Z" fill="black"/>
<path d="M168.75 69.9453V56H175.781V69.9453H168.75Z" fill="black"/>
<path d="M179.906 70.1094V55.8711H181.125V70.1094H179.906ZM177.469 70.1094V55.8711H178.688V70.1094H177.469Z" fill="black"/>
<path d="M1.6875 78.8184V69.8711H2.90625V77.5996H7.64062V78.8184H1.6875ZM4.125 76.3809V69.8711H5.34375V75.1621H7.64062V76.3809H4.125Z" fill="black"/>
<path d="M6.42188 76.3809V75.1621H14.6719V76.3809H6.42188ZM6.42188 78.8184V77.5996H14.6719V78.8184H6.42188Z" fill="black"/>
<path d="M13.4531 76.3809V75.1621H21.7031V76.3809H13.4531ZM13.4531 78.8184V77.5996H21.7031V78.8184H13.4531Z" fill="black"/>
<path d="M20.4844 76.3809V75.1621H28.7344V76.3809H20.4844ZM20.4844 78.8184V77.5996H28.7344V78.8184H20.4844Z" fill="black"/>
<path d="M27.5156 76.3809V75.1621H35.7656V76.3809H27.5156ZM27.5156 78.8184V77.5996H35.7656V78.8184H27.5156Z" fill="black"/>
<path d="M34.5469 76.3809V75.1621H42.7969V76.3809H34.5469ZM34.5469 78.8184V77.5996H42.7969V78.8184H34.5469Z" fill="black"/>
<path d="M41.5781 76.3809V75.1621H49.8281V76.3809H41.5781ZM41.5781 78.8184V77.5996H49.8281V78.8184H41.5781Z" fill="black"/>
<path d="M48.6094 78.8184V77.5996H53.3438V69.8711H54.5625V78.8184H48.6094ZM48.6094 76.3809V75.1621H50.9062V69.8711H52.125V76.3809H48.6094Z" fill="black"/>
<path d="M57.9375 78.8184V69.8711H59.1562V77.5996H63.8906V78.8184H57.9375ZM60.375 76.3809V69.8711H61.5938V75.1621H63.8906V76.3809H60.375Z" fill="black"/>
<path d="M62.6719 76.3809V75.1621H70.9219V76.3809H62.6719ZM62.6719 78.8184V77.5996H70.9219V78.8184H62.6719Z" fill="black"/>
<path d="M69.7031 76.3809V75.1621H77.9531V76.3809H69.7031ZM69.7031 78.8184V77.5996H77.9531V78.8184H69.7031Z" fill="black"/>
<path d="M76.7344 76.3809V75.1621H84.9844V76.3809H76.7344ZM76.7344 78.8184V77.5996H84.9844V78.8184H76.7344Z" fill="black"/>
<path d="M83.7656 76.3809V75.1621H92.0156V76.3809H83.7656ZM83.7656 78.8184V77.5996H92.0156V78.8184H83.7656Z" fill="black"/>
<path d="M90.7969 76.3809V75.1621H99.0469V76.3809H90.7969ZM90.7969 78.8184V77.5996H99.0469V78.8184H90.7969Z" fill="black"/>
<path d="M97.8281 76.3809V75.1621H106.078V76.3809H97.8281ZM97.8281 78.8184V77.5996H106.078V78.8184H97.8281Z" fill="black"/>
<path d="M104.859 78.8184V77.5996H109.594V69.8711H110.812V78.8184H104.859ZM104.859 76.3809V75.1621H107.156V69.8711H108.375V76.3809H104.859Z" fill="black"/>
<path d="M114.188 78.8184V69.8711H115.406V77.5996H120.141V78.8184H114.188ZM116.625 76.3809V69.8711H117.844V75.1621H120.141V76.3809H116.625Z" fill="black"/>
<path d="M118.922 76.3809V75.1621H127.172V76.3809H118.922ZM118.922 78.8184V77.5996H127.172V78.8184H118.922Z" fill="black"/>
<path d="M125.953 78.8184V77.5996H130.688V69.8711H131.906V78.8184H125.953ZM125.953 76.3809V75.1621H128.25V69.8711H129.469V76.3809H125.953Z" fill="black"/>
<path d="M149.344 78.8184V69.8711H150.562V77.5996H155.297V78.8184H149.344ZM151.781 76.3809V69.8711H153V75.1621H155.297V76.3809H151.781Z" fill="black"/>
<path d="M154.078 76.3809V75.1621H162.328V76.3809H154.078ZM154.078 78.8184V77.5996H162.328V78.8184H154.078Z" fill="black"/>
<path d="M161.109 76.3809V75.1621H169.359V76.3809H161.109ZM161.109 78.8184V77.5996H169.359V78.8184H161.109Z" fill="black"/>
<path d="M168.141 76.3809V75.1621H176.391V76.3809H168.141ZM168.141 78.8184V77.5996H176.391V78.8184H168.141Z" fill="black"/>
<path d="M175.172 78.8184V77.5996H179.906V69.8711H181.125V78.8184H175.172ZM175.172 76.3809V75.1621H177.469V69.8711H178.688V76.3809H175.172Z" fill="black"/>
<path d="M0 97.9453V84H7.03125V97.9453H0Z" fill="black"/>
<path d="M7.03125 97.9453V84H14.0625V97.9453H7.03125Z" fill="black"/>
<path d="M14.0625 97.9453V84H21.0938V97.9453H14.0625Z" fill="black"/>
<path d="M21.0938 97.9453V84H28.125V97.9453H21.0938Z" fill="black"/>
<path d="M28.125 97.9453V84H35.1562V97.9453H28.125Z" fill="black"/>
<path d="M35.1562 97.9453V84H42.1875V97.9453H35.1562Z" fill="black"/>
<path d="M42.1875 97.9453V84H49.2188V97.9453H42.1875Z" fill="black"/>
<path d="M53.3438 98.1094V90.3809H48.6094V89.1621H54.5625V98.1094H53.3438ZM50.9062 98.1094V92.8184H48.6094V91.5996H52.125V98.1094H50.9062Z" fill="black"/>
<path d="M56.25 97.9453V84H63.2812V97.9453H56.25Z" fill="black"/>
<path d="M63.2812 97.9453V84H70.3125V97.9453H63.2812Z" fill="black"/>
<path d="M74.4375 98.1094V90.3809H69.7031V89.1621H75.6562V98.1094H74.4375ZM72 98.1094V92.8184H69.7031V91.5996H73.2188V98.1094H72Z" fill="black"/>
<path d="M119.531 97.9453V84H126.562V97.9453H119.531Z" fill="black"/>
<path d="M126.562 97.9453V84H133.594V97.9453H126.562Z" fill="black"/>
<path d="M133.594 97.9453V84H140.625V97.9453H133.594Z" fill="black"/>
<path d="M140.625 97.9453V84H147.656V97.9453H140.625Z" fill="black"/>
<path d="M147.656 97.9453V84H154.688V97.9453H147.656Z" fill="black"/>
<path d="M154.688 97.9453V84H161.719V97.9453H154.688Z" fill="black"/>
<path d="M165.844 98.1094V90.3809H161.109V89.1621H167.062V98.1094H165.844ZM163.406 98.1094V92.8184H161.109V91.5996H164.625V98.1094H163.406Z" fill="black"/>
<path d="M0 111.945V98H7.03125V111.945H0Z" fill="black"/>
<path d="M7.03125 111.945V98H14.0625V111.945H7.03125Z" fill="black"/>
<path d="M15.75 112.109V103.162H21.7031V104.381H16.9688V112.109H15.75ZM18.1875 112.109V105.6H21.7031V106.818H19.4062V112.109H18.1875Z" fill="black"/>
<path d="M20.4844 104.381V103.162H28.7344V104.381H20.4844ZM20.4844 106.818V105.6H28.7344V106.818H20.4844Z" fill="black"/>
<path d="M27.5156 104.381V103.162H35.7656V104.381H27.5156ZM27.5156 106.818V105.6H35.7656V106.818H27.5156Z" fill="black"/>
<path d="M34.5469 104.381V103.162H42.7969V104.381H34.5469ZM34.5469 106.818V105.6H42.7969V106.818H34.5469Z" fill="black"/>
<path d="M41.5781 104.381V103.162H49.8281V104.381H41.5781ZM41.5781 106.818V105.6H49.8281V106.818H41.5781Z" fill="black"/>
<path d="M48.6094 106.818V105.6H53.3438V97.8711H54.5625V106.818H48.6094ZM48.6094 104.381V103.162H50.9062V97.8711H52.125V104.381H48.6094Z" fill="black"/>
<path d="M56.25 111.945V98H63.2812V111.945H56.25Z" fill="black"/>
<path d="M63.2812 111.945V98H70.3125V111.945H63.2812Z" fill="black"/>
<path d="M74.4375 112.109V97.8711H75.6562V112.109H74.4375ZM72 112.109V97.8711H73.2188V112.109H72Z" fill="black"/>
<path d="M112.5 111.945V98H119.531V111.945H112.5Z" fill="black"/>
<path d="M119.531 111.945V98H126.562V111.945H119.531Z" fill="black"/>
<path d="M128.25 112.109V103.162H134.203V104.381H129.469V112.109H128.25ZM130.688 112.109V105.6H134.203V106.818H131.906V112.109H130.688Z" fill="black"/>
<path d="M132.984 104.381V103.162H141.234V104.381H132.984ZM132.984 106.818V105.6H141.234V106.818H132.984Z" fill="black"/>
<path d="M140.016 104.381V103.162H148.266V104.381H140.016ZM140.016 106.818V105.6H148.266V106.818H140.016Z" fill="black"/>
<path d="M147.047 104.381V103.162H155.297V104.381H147.047ZM147.047 106.818V105.6H155.297V106.818H147.047Z" fill="black"/>
<path d="M154.688 111.945V98H161.719V111.945H154.688Z" fill="black"/>
<path d="M161.719 111.945V98H168.75V111.945H161.719Z" fill="black"/>
<path d="M172.875 112.109V104.381H168.141V103.162H174.094V112.109H172.875ZM170.438 112.109V106.818H168.141V105.6H171.656V112.109H170.438Z" fill="black"/>
<path d="M0 125.945V112H7.03125V125.945H0Z" fill="black"/>
<path d="M7.03125 125.945V112H14.0625V125.945H7.03125Z" fill="black"/>
<path d="M14.0625 125.945V112H21.0938V125.945H14.0625Z" fill="black"/>
<path d="M21.0938 125.945V112H28.125V125.945H21.0938Z" fill="black"/>
<path d="M28.125 125.945V112H35.1562V125.945H28.125Z" fill="black"/>
<path d="M39.2812 126.109V118.381H34.5469V117.162H40.5V126.109H39.2812ZM36.8438 126.109V120.818H34.5469V119.6H38.0625V126.109H36.8438Z" fill="black"/>
<path d="M56.25 125.945V112H63.2812V125.945H56.25Z" fill="black"/>
<path d="M63.2812 125.945V112H70.3125V125.945H63.2812Z" fill="black"/>
<path d="M74.4375 126.109V111.871H75.6562V126.109H74.4375ZM72 126.109V111.871H73.2188V126.109H72Z" fill="black"/>
<path d="M112.5 125.945V112H119.531V125.945H112.5Z" fill="black"/>
<path d="M119.531 125.945V112H126.562V125.945H119.531Z" fill="black"/>
<path d="M130.688 126.109V111.871H131.906V126.109H130.688ZM128.25 126.109V111.871H129.469V126.109H128.25Z" fill="black"/>
<path d="M154.688 125.945V112H161.719V125.945H154.688Z" fill="black"/>
<path d="M161.719 125.945V112H168.75V125.945H161.719Z" fill="black"/>
<path d="M172.875 126.109V111.871H174.094V126.109H172.875ZM170.438 126.109V111.871H171.656V126.109H170.438Z" fill="black"/>
<path d="M0 139.945V126H7.03125V139.945H0Z" fill="black"/>
<path d="M7.03125 139.945V126H14.0625V139.945H7.03125Z" fill="black"/>
<path d="M15.75 140.109V131.162H21.7031V132.381H16.9688V140.109H15.75ZM18.1875 140.109V133.6H21.7031V134.818H19.4062V140.109H18.1875Z" fill="black"/>
<path d="M20.4844 132.381V131.162H28.7344V132.381H20.4844ZM20.4844 134.818V133.6H28.7344V134.818H20.4844Z" fill="black"/>
<path d="M27.5156 132.381V131.162H35.7656V132.381H27.5156ZM27.5156 134.818V133.6H35.7656V134.818H27.5156Z" fill="black"/>
<path d="M34.5469 134.818V133.6H39.2812V125.871H40.5V134.818H34.5469ZM34.5469 132.381V131.162H36.8438V125.871H38.0625V132.381H34.5469Z" fill="black"/>
<path d="M56.25 139.945V126H63.2812V139.945H56.25Z" fill="black"/>
<path d="M63.2812 139.945V126H70.3125V139.945H63.2812Z" fill="black"/>
<path d="M74.4375 140.109V125.871H75.6562V140.109H74.4375ZM72 140.109V125.871H73.2188V140.109H72Z" fill="black"/>
<path d="M112.5 139.945V126H119.531V139.945H112.5Z" fill="black"/>
<path d="M119.531 139.945V126H126.562V139.945H119.531Z" fill="black"/>
<path d="M130.688 140.109V125.871H131.906V140.109H130.688ZM128.25 140.109V125.871H129.469V140.109H128.25Z" fill="black"/>
<path d="M154.688 139.945V126H161.719V139.945H154.688Z" fill="black"/>
<path d="M161.719 139.945V126H168.75V139.945H161.719Z" fill="black"/>
<path d="M172.875 140.109V125.871H174.094V140.109H172.875ZM170.438 140.109V125.871H171.656V140.109H170.438Z" fill="black"/>
<path d="M0 153.945V140H7.03125V153.945H0Z" fill="black"/>
<path d="M7.03125 153.945V140H14.0625V153.945H7.03125Z" fill="black"/>
<path d="M18.1875 154.109V139.871H19.4062V154.109H18.1875ZM15.75 154.109V139.871H16.9688V154.109H15.75Z" fill="black"/>
<path d="M56.25 153.945V140H63.2812V153.945H56.25Z" fill="black"/>
<path d="M63.2812 153.945V140H70.3125V153.945H63.2812Z" fill="black"/>
<path d="M70.3125 153.945V140H77.3438V153.945H70.3125Z" fill="black"/>
<path d="M77.3438 153.945V140H84.375V153.945H77.3438Z" fill="black"/>
<path d="M84.375 153.945V140H91.4062V153.945H84.375Z" fill="black"/>
<path d="M91.4062 153.945V140H98.4375V153.945H91.4062Z" fill="black"/>
<path d="M98.4375 153.945V140H105.469V153.945H98.4375Z" fill="black"/>
<path d="M109.594 154.109V146.381H104.859V145.162H110.812V154.109H109.594ZM107.156 154.109V148.818H104.859V147.6H108.375V154.109H107.156Z" fill="black"/>
<path d="M114.188 148.818V139.871H115.406V147.6H120.141V148.818H114.188ZM116.625 146.381V139.871H117.844V145.162H120.141V146.381H116.625Z" fill="black"/>
<path d="M119.531 153.945V140H126.562V153.945H119.531Z" fill="black"/>
<path d="M126.562 153.945V140H133.594V153.945H126.562Z" fill="black"/>
<path d="M133.594 153.945V140H140.625V153.945H133.594Z" fill="black"/>
<path d="M140.625 153.945V140H147.656V153.945H140.625Z" fill="black"/>
<path d="M147.656 153.945V140H154.688V153.945H147.656Z" fill="black"/>
<path d="M154.688 153.945V140H161.719V153.945H154.688Z" fill="black"/>
<path d="M163.406 154.109V145.162H169.359V146.381H164.625V154.109H163.406ZM165.844 154.109V147.6H169.359V148.818H167.062V154.109H165.844Z" fill="black"/>
<path d="M168.141 148.818V147.6H172.875V139.871H174.094V148.818H168.141ZM168.141 146.381V145.162H170.438V139.871H171.656V146.381H168.141Z" fill="black"/>
<path d="M1.6875 162.818V153.871H2.90625V161.6H7.64062V162.818H1.6875ZM4.125 160.381V153.871H5.34375V159.162H7.64062V160.381H4.125Z" fill="black"/>
<path d="M6.42188 160.381V159.162H14.6719V160.381H6.42188ZM6.42188 162.818V161.6H14.6719V162.818H6.42188Z" fill="black"/>
<path d="M13.4531 162.818V161.6H18.1875V153.871H19.4062V162.818H13.4531ZM13.4531 160.381V159.162H15.75V153.871H16.9688V160.381H13.4531Z" fill="black"/>
<path d="M57.9375 162.818V153.871H59.1562V161.6H63.8906V162.818H57.9375ZM60.375 160.381V153.871H61.5938V159.162H63.8906V160.381H60.375Z" fill="black"/>
<path d="M62.6719 160.381V159.162H70.9219V160.381H62.6719ZM62.6719 162.818V161.6H70.9219V162.818H62.6719Z" fill="black"/>
<path d="M69.7031 160.381V159.162H77.9531V160.381H69.7031ZM69.7031 162.818V161.6H77.9531V162.818H69.7031Z" fill="black"/>
<path d="M76.7344 160.381V159.162H84.9844V160.381H76.7344ZM76.7344 162.818V161.6H84.9844V162.818H76.7344Z" fill="black"/>
<path d="M83.7656 160.381V159.162H92.0156V160.381H83.7656ZM83.7656 162.818V161.6H92.0156V162.818H83.7656Z" fill="black"/>
<path d="M90.7969 160.381V159.162H99.0469V160.381H90.7969ZM90.7969 162.818V161.6H99.0469V162.818H90.7969Z" fill="black"/>
<path d="M97.8281 160.381V159.162H106.078V160.381H97.8281ZM97.8281 162.818V161.6H106.078V162.818H97.8281Z" fill="black"/>
<path d="M104.859 162.818V161.6H109.594V153.871H110.812V162.818H104.859ZM104.859 160.381V159.162H107.156V153.871H108.375V160.381H104.859Z" fill="black"/>
<path d="M121.219 162.818V153.871H122.438V161.6H127.172V162.818H121.219ZM123.656 160.381V153.871H124.875V159.162H127.172V160.381H123.656Z" fill="black"/>
<path d="M125.953 160.381V159.162H134.203V160.381H125.953ZM125.953 162.818V161.6H134.203V162.818H125.953Z" fill="black"/>
<path d="M132.984 160.381V159.162H141.234V160.381H132.984ZM132.984 162.818V161.6H141.234V162.818H132.984Z" fill="black"/>
<path d="M140.016 160.381V159.162H148.266V160.381H140.016ZM140.016 162.818V161.6H148.266V162.818H140.016Z" fill="black"/>
<path d="M147.047 160.381V159.162H155.297V160.381H147.047ZM147.047 162.818V161.6H155.297V162.818H147.047Z" fill="black"/>
<path d="M154.078 160.381V159.162H162.328V160.381H154.078ZM154.078 162.818V161.6H162.328V162.818H154.078Z" fill="black"/>
<path d="M161.109 162.818V161.6H165.844V153.871H167.062V162.818H161.109ZM161.109 160.381V159.162H163.406V153.871H164.625V160.381H161.109Z" fill="black"/>
</svg>
